PathFileType	4	(X/Y/Z)	/Users/itak/Documents/Research/Walk-IL/dataset/trc/00178_00008.trc
DataRate	CameraRate	NumFrames	NumMarkers	Units	OrigDataRate	OrigDataStartFrame	OrigNumFrames
100.000000	100.000000	4	53	mm	100.000000	0	846
Frame#	Time	RPSI			LPSI			L3			STRN			T10			C7			CLAV			RBAK			LBAK			LSHO			LUPA			LAEL			LAOL			LWTS			LWPS			LFRA			LIFD			LHPS			LHTS			RSHO			RUPA			RAEL			RAOL			RWTS			RWPS			RFRA			RIFD			RHTS			RHPS			RBHD			LFHD			RFHD			LBHD			LHIP			RHIP			RASI			LASI			LKNE			LTHI			LANK			LTIP			LTOE			LMT1			LMT5			LHEE			RKNE			RTHI			RANK			RTIP			RTOE			RMT1			RMT5			RHEE			
		X1	Y1	Z1	X2	Y2	Z2	X3	Y3	Z3	X4	Y4	Z4	X5	Y5	Z5	X6	Y6	Z6	X7	Y7	Z7	X8	Y8	Z8	X9	Y9	Z9	X10	Y10	Z10	X11	Y11	Z11	X12	Y12	Z12	X13	Y13	Z13	X14	Y14	Z14	X15	Y15	Z15	X16	Y16	Z16	X17	Y17	Z17	X18	Y18	Z18	X19	Y19	Z19	X20	Y20	Z20	X21	Y21	Z21	X22	Y22	Z22	X23	Y23	Z23	X24	Y24	Z24	X25	Y25	Z25	X26	Y26	Z26	X27	Y27	Z27	X28	Y28	Z28	X29	Y29	Z29	X30	Y30	Z30	X31	Y31	Z31	X32	Y32	Z32	X33	Y33	Z33	X34	Y34	Z34	X35	Y35	Z35	X36	Y36	Z36	X37	Y37	Z37	X38	Y38	Z38	X39	Y39	Z39	X40	Y40	Z40	X41	Y41	Z41	X42	Y42	Z42	X43	Y43	Z43	X44	Y44	Z44	X45	Y45	Z45	X46	Y46	Z46	X47	Y47	Z47	X48	Y48	Z48	X49	Y49	Z49	X50	Y50	Z50	X51	Y51	Z51	X52	Y52	Z52	X53	Y53	Z53	

1	0	-159.7459259033203	1061.713745117188	1392.7373046875	-156.0962524414062	1057.141845703125	1268.241088867188	-157.6329803466797	1098.882446289062	1332.05126953125	95.972412109375	1302.700439453125	1329.734619140625	-192.1650085449219	1251.367797851562	1321.70166015625	-132.4434204101562	1520.651000976562	1309.601684570312	67.83074951171875	1415.967041015625	1319.071411132812	-200.1376647949219	1346.196533203125	1416.931518554688	-134.8037414550781	1494.010009765625	1209.0478515625	-55.30111312866211	1481.376220703125	1131.564453125	-78.96755981445312	1347.2373046875	1058.062255859375	-53.38865280151367	1128.468872070312	1042.046752929688	-112.6282348632812	1115.583129882812	1108.025024414062	58.68606185913086	900.9027709960938	1094.693237304688	-15.11895942687988	876.418701171875	1042.751953125	-33.64784240722656	1018.176635742188	1032.427490234375	69.73519897460938	718.0584716796875	1127.84765625	6.399280071258545	807.693603515625	1052.116088867188	73.67005920410156	820.8588256835938	1078.447509765625	-73.65926361083984	1500.169799804688	1491.257202148438	-92.82524871826172	1433.800903320312	1561.28369140625	-95.39582061767578	1143.294555664062	1613.010986328125	-104.839111328125	1137.138427734375	1516.525024414062	53.14154052734375	923.1126708984375	1581.711791992188	-16.3926830291748	902.8892822265625	1633.1396484375	-65.5673828125	1072.21630859375	1628.492309570312	77.79963684082031	735.469970703125	1557.472045898438	83.27596282958984	830.4338989257812	1586.73681640625	15.12840938568115	821.4481201171875	1626.390991210938	-74.96469116210938	1684.57666015625	1375.213623046875	107.7077865600586	1730.264404296875	1267.975463867188	90.29737854003906	1733.592163085938	1396.10400390625	-65.64167785644531	1687.969604492188	1237.552978515625	-51.55192565917969	994.7267456054688	1152.152099609375	-4.583979606628418	1023.490051269531	1519.381958007812	76.66274261474609	1048.744018554688	1464.037231445312	74.05886840820312	1032.986206054688	1206.848388671875	-52.02694320678711	501.9533996582031	1179.326171875	-40.83024978637695	643.2677612304688	1155.556884765625	-145.5057830810547	48.6973991394043	1167.638916015625	-99.36444091796875	283.2900085449219	1160.13720703125	74.35041809082031	43.66702270507812	1151.49267578125	34.12149047851562	42.57148361206055	1209.769287109375	-46.68015670776367	42.18024063110352	1109.12060546875	-185.2853088378906	43.99500274658203	1243.373657226562	-20.2077751159668	524.2819213867188	1510.772705078125	39.36952590942383	792.6798095703125	1533.694580078125	-111.386833190918	46.45591735839844	1517.844604492188	-13.8587532043457	407.3920593261719	1497.301513671875	113.2111129760742	46.75962066650391	1498.464233398438	62.07413482666016	45.51628112792969	1448.962768554688	-1.023847818374634	44.04240798950195	1560.194580078125	-157.9047546386719	43.78360366821289	1446.13916015625	
2	0.01	-159.6900329589844	1061.6796875	1392.675048828125	-156.0276641845703	1057.129760742188	1268.17626953125	-157.5889129638672	1098.877563476562	1332.006591796875	96.00141143798828	1302.709228515625	1329.78857421875	-192.1290588378906	1251.336791992188	1321.63427734375	-132.3957977294922	1520.63037109375	1309.552490234375	67.88369750976562	1415.969482421875	1319.128173828125	-200.1137847900391	1346.171997070312	1416.860595703125	-134.7149047851562	1493.994506835938	1208.999389648438	-55.1601448059082	1481.353881835938	1131.5546875	-78.77399444580078	1347.194946289062	1058.058959960938	-53.12409591674805	1128.4169921875	1042.173828125	-112.4858169555664	1115.570556640625	1108.089599609375	59.00592422485352	900.9271850585938	1095.059448242188	-14.75917911529541	876.35791015625	1043.070190429688	-33.29272842407227	1018.143249511719	1032.6240234375	70.16110992431641	718.1290283203125	1128.334716796875	6.830072402954102	807.6585693359375	1052.47314453125	74.09018707275391	820.882080078125	1078.88623046875	-73.69744110107422	1500.17041015625	1491.245361328125	-92.88620758056641	1433.806396484375	1561.279052734375	-95.46656799316406	1143.306030273438	1613.036865234375	-104.8593521118164	1137.134887695312	1516.548950195312	53.09461212158203	923.1416015625	1581.8681640625	-16.4877758026123	902.92041015625	1633.278686523438	-65.63655853271484	1072.228393554688	1628.550659179688	77.79543304443359	735.4865112304688	1557.645141601562	83.41631317138672	830.4489135742188	1586.936279296875	15.07503318786621	821.4497680664062	1626.511474609375	-74.99349975585938	1684.549560546875	1375.223388671875	107.7014389038086	1730.287231445312	1268.055786132812	90.26624298095703	1733.593505859375	1396.161743164062	-65.62631988525391	1687.96240234375	1237.563598632812	-51.43545150756836	994.7188720703125	1152.14013671875	-4.587340354919434	1023.483825683594	1519.38232421875	76.67666625976562	1048.734985351562	1464.048217773438	74.14271545410156	1032.972900390625	1206.86181640625	-52.00313949584961	501.9478759765625	1179.331298828125	-40.78063583374023	643.25830078125	1155.565673828125	-145.5015716552734	48.69503021240234	1167.642456054688	-99.35391235351562	283.2943115234375	1160.141235351562	74.35078430175781	43.66243743896484	1151.492919921875	34.12179946899414	42.56668090820312	1209.7724609375	-46.68165969848633	42.1795768737793	1109.1181640625	-185.2727661132812	44.00051116943359	1243.383544921875	-20.24967002868652	524.281005859375	1510.778076171875	39.43942642211914	792.7319946289062	1533.616577148438	-111.3954010009766	46.45467376708984	1517.84423828125	-13.8962984085083	407.388427734375	1497.306762695312	113.2094345092773	46.75804138183594	1498.465698242188	62.0708122253418	45.51581954956055	1448.966674804688	-1.032728910446167	44.03508758544922	1560.192504882812	-157.9180908203125	43.78274536132812	1446.128662109375	
3	0.02	-159.6443481445312	1061.645263671875	1392.607177734375	-155.9428558349609	1057.114990234375	1268.099853515625	-157.5354156494141	1098.86962890625	1331.949829101562	96.04533386230469	1302.7216796875	1329.858032226562	-192.0820159912109	1251.299926757812	1321.551879882812	-132.3363952636719	1520.60595703125	1309.490966796875	67.95172882080078	1415.974487304688	1319.199829101562	-200.0820617675781	1346.142944335938	1416.774658203125	-134.6027069091797	1493.973388671875	1208.940063476562	-54.98006820678711	1481.327880859375	1131.543823242188	-78.53545379638672	1347.142822265625	1058.057861328125	-52.78313827514648	1128.353881835938	1042.337280273438	-112.2984008789062	1115.549194335938	1108.181640625	59.42106628417969	900.9612426757812	1095.53173828125	-14.28702449798584	876.2838134765625	1043.478881835938	-32.83664321899414	1018.0986328125	1032.878295898438	70.70574188232422	718.2207641601562	1128.95751953125	7.382975101470947	807.6135864257812	1052.9384765625	74.61196899414062	820.9110107421875	1079.447631835938	-73.74341583251953	1500.170776367188	1491.231323242188	-92.95930480957031	1433.813232421875	1561.273193359375	-95.55179595947266	1143.321044921875	1613.072021484375	-104.8805389404297	1137.130249023438	1516.584350585938	53.04068756103516	923.17626953125	1582.062377929688	-16.60189628601074	902.9603271484375	1633.453125	-65.72281646728516	1072.245483398438	1628.627563476562	77.78237915039062	735.4915161132812	1557.85302734375	83.55906677246094	830.4674072265625	1587.195678710938	15.01231479644775	821.45849609375	1626.671142578125	-75.03138732910156	1684.515258789062	1375.23583984375	107.6911697387695	1730.318725585938	1268.159912109375	90.22467803955078	1733.596923828125	1396.237670898438	-65.60547637939453	1687.9541015625	1237.577392578125	-51.28600692749023	994.7088623046875	1152.121704101562	-4.5908522605896	1023.478637695312	1519.381958007812	76.69097900390625	1048.724365234375	1464.06201171875	74.24610900878906	1032.955688476562	1206.87744140625	-51.97562026977539	501.9400024414062	1179.335327148438	-40.72096252441406	643.2481079101562	1155.5712890625	-145.49853515625	48.69256973266602	1167.645263671875	-99.34194946289062	283.2981567382812	1160.143310546875	74.35140991210938	43.65741348266602	1151.493408203125	34.12219619750977	42.56211853027344	1209.774780273438	-46.68342971801758	42.17898941040039	1109.11572265625	-185.2621459960938	44.00746917724609	1243.391723632812	-20.29693984985352	524.281494140625	1510.78271484375	39.52545166015625	792.79736328125	1533.521850585938	-111.4036560058594	46.45420455932617	1517.844116210938	-13.93888378143311	407.3857727050781	1497.3125	113.2072677612305	46.75636291503906	1498.468017578125	62.06671905517578	45.51524353027344	1448.971435546875	-1.04168426990509	44.02745819091797	1560.190673828125	-157.9330749511719	43.78069686889648	1446.117431640625	
4	0.03	-159.6088409423828	1061.61279296875	1392.535522460938	-155.8467864990234	1057.099365234375	1268.017211914062	-157.4735412597656	1098.858642578125	1331.882690429688	96.10624694824219	1302.738159179688	1329.941528320312	-192.0241851806641	1251.260131835938	1321.458374023438	-132.2674865722656	1520.579956054688	1309.419677734375	68.03269958496094	1415.982543945312	1319.283203125	-200.0430297851562	1346.111694335938	1416.678344726562	-134.4713897705078	1493.947387695312	1208.8740234375	-54.76702499389648	1481.2998046875	1131.532470703125	-78.26214599609375	1347.083862304688	1058.060180664062	-52.37622833251953	1128.282592773438	1042.531860351562	-112.0676422119141	1115.516723632812	1108.303100585938	59.92049026489258	901.0056762695312	1096.095703125	-13.71328258514404	876.2015991210938	1043.96533203125	-32.29795837402344	1018.043029785156	1033.183715820312	71.35160827636719	718.3314208984375	1129.696655273438	8.039731025695801	807.5609130859375	1053.5009765625	75.21443176269531	820.94580078125	1080.114624023438	-73.79404449462891	1500.17041015625	1491.216064453125	-93.04011535644531	1433.821411132812	1561.266479492188	-95.64604949951172	1143.339233398438	1613.115844726562	-104.8994598388672	1137.124755859375	1516.631225585938	52.98395156860352	923.2142333984375	1582.285522460938	-16.72622871398926	903.0068969726562	1633.654907226562	-65.82154083251953	1072.26806640625	1628.721923828125	77.75752258300781	735.4794311523438	1558.085815429688	83.68533325195312	830.4905395507812	1587.505615234375	14.9438419342041	821.4778442382812	1626.86865234375	-75.07733154296875	1684.475219726562	1375.25048828125	107.677734375	1730.359008789062	1268.285400390625	90.17307281494141	1733.602783203125	1396.330932617188	-65.57891845703125	1687.945556640625	1237.594116210938	-51.11353302001953	994.697509765625	1152.096923828125	-4.594573497772217	1023.4755859375	1519.380004882812	76.70443725585938	1048.713256835938	1464.078857421875	74.36414337158203	1032.935302734375	1206.894287109375	-51.94670104980469	501.9299011230469	1179.33740234375	-40.654296875	643.2379760742188	1155.571533203125	-145.4967651367188	48.69025802612305	1167.647094726562	-99.32895660400391	283.3008728027344	1160.142578125	74.35225677490234	43.65267944335938	1151.494262695312	34.12251281738281	42.55875015258789	1209.775756835938	-46.68538284301758	42.17883682250977	1109.113647460938	-185.2552947998047	44.01514434814453	1243.396728515625	-20.34562492370605	524.2835693359375	1510.785766601562	39.61553192138672	792.8685913085938	1533.424194335938	-111.4099349975586	46.45459747314453	1517.844360351562	-13.98272514343262	407.3847351074219	1497.318237304688	113.2047729492188	46.75492095947266	1498.4716796875	62.06202697753906	45.51461791992188	1448.976928710938	-1.049706220626831	44.01980209350586	1560.189575195312	-157.9457397460938	43.77789306640625	1446.1083984375	
